<mxfile host="app.diagrams.net" modified="2024-06-21T00:44:55.771Z" agent="Mozilla/5.0 (Macintosh; Intel Mac OS X 10_15_7) AppleWebKit/537.36 (KHTML, like Gecko) Chrome/126.0.0.0 Safari/537.36" etag="ykRXhThesPupRX7_DTB-" version="24.5.5" type="github">
  <diagram id="6a731a19-8d31-9384-78a2-239565b7b9f0" name="Page-1">
    <mxGraphModel dx="2074" dy="1146" grid="1" gridSize="10" guides="1" tooltips="1" connect="1" arrows="1" fold="1" page="1" pageScale="1" pageWidth="3300" pageHeight="2339" background="none" math="0" shadow="0">
      <root>
        <mxCell id="0" />
        <mxCell id="1" parent="0" />
        <mxCell id="wKOrcb_5Ln49cqBJrJnI-54" style="edgeStyle=orthogonalEdgeStyle;rounded=0;orthogonalLoop=1;jettySize=auto;html=1;exitX=0.5;exitY=1;exitDx=0;exitDy=0;entryX=0.5;entryY=0;entryDx=0;entryDy=0;strokeWidth=2;fontSize=17;" parent="1" source="YvQ0jjIPBDzxf4e6Cb04-57" target="YvQ0jjIPBDzxf4e6Cb04-60" edge="1">
          <mxGeometry relative="1" as="geometry">
            <Array as="points">
              <mxPoint x="890" y="640" />
              <mxPoint x="890" y="640" />
            </Array>
          </mxGeometry>
        </mxCell>
        <mxCell id="YvQ0jjIPBDzxf4e6Cb04-57" value="联络开关多条件布局" style="rounded=0;whiteSpace=wrap;html=1;fontSize=17;" parent="1" vertex="1">
          <mxGeometry x="830" y="560" width="120" height="60" as="geometry" />
        </mxCell>
        <mxCell id="YvQ0jjIPBDzxf4e6Cb04-119" style="edgeStyle=orthogonalEdgeStyle;rounded=0;orthogonalLoop=1;jettySize=auto;html=1;exitX=1;exitY=0.5;exitDx=0;exitDy=0;entryX=0;entryY=0.5;entryDx=0;entryDy=0;strokeWidth=2;fontSize=17;" parent="1" source="YvQ0jjIPBDzxf4e6Cb04-60" target="YvQ0jjIPBDzxf4e6Cb04-65" edge="1">
          <mxGeometry relative="1" as="geometry" />
        </mxCell>
        <mxCell id="uRffmKBk7FXSzzBP3Kvt-1" style="edgeStyle=orthogonalEdgeStyle;rounded=0;orthogonalLoop=1;jettySize=auto;html=1;exitX=0.5;exitY=1;exitDx=0;exitDy=0;entryX=0.5;entryY=0;entryDx=0;entryDy=0;fontStyle=1;strokeWidth=2;" edge="1" parent="1" source="YvQ0jjIPBDzxf4e6Cb04-60" target="YvQ0jjIPBDzxf4e6Cb04-70">
          <mxGeometry relative="1" as="geometry" />
        </mxCell>
        <mxCell id="YvQ0jjIPBDzxf4e6Cb04-60" value="是否多层布局" style="rhombus;whiteSpace=wrap;html=1;rounded=0;fontSize=17;" parent="1" vertex="1">
          <mxGeometry x="820" y="650" width="140" height="88" as="geometry" />
        </mxCell>
        <mxCell id="YvQ0jjIPBDzxf4e6Cb04-107" style="edgeStyle=orthogonalEdgeStyle;rounded=0;orthogonalLoop=1;jettySize=auto;html=1;exitX=0.5;exitY=1;exitDx=0;exitDy=0;entryX=0.5;entryY=0;entryDx=0;entryDy=0;strokeWidth=2;fontSize=17;" parent="1" source="YvQ0jjIPBDzxf4e6Cb04-64" target="YvQ0jjIPBDzxf4e6Cb04-85" edge="1">
          <mxGeometry relative="1" as="geometry">
            <Array as="points">
              <mxPoint x="700" y="1050" />
              <mxPoint x="700" y="1090" />
              <mxPoint x="620" y="1090" />
            </Array>
          </mxGeometry>
        </mxCell>
        <mxCell id="YvQ0jjIPBDzxf4e6Cb04-64" value="进行dealTwoSub处理" style="whiteSpace=wrap;html=1;rounded=0;fontSize=17;" parent="1" vertex="1">
          <mxGeometry x="640" y="990" width="130" height="60" as="geometry" />
        </mxCell>
        <mxCell id="YvQ0jjIPBDzxf4e6Cb04-118" style="edgeStyle=orthogonalEdgeStyle;rounded=0;orthogonalLoop=1;jettySize=auto;html=1;exitX=0.5;exitY=1;exitDx=0;exitDy=0;entryX=1;entryY=0.5;entryDx=0;entryDy=0;strokeWidth=2;fontSize=17;" parent="1" source="YvQ0jjIPBDzxf4e6Cb04-65" target="YvQ0jjIPBDzxf4e6Cb04-98" edge="1">
          <mxGeometry relative="1" as="geometry" />
        </mxCell>
        <mxCell id="YvQ0jjIPBDzxf4e6Cb04-65" value="多层布局处理" style="whiteSpace=wrap;html=1;rounded=0;fontSize=17;" parent="1" vertex="1">
          <mxGeometry x="1300" y="664" width="120" height="60" as="geometry" />
        </mxCell>
        <mxCell id="YvQ0jjIPBDzxf4e6Cb04-86" value="" style="edgeStyle=orthogonalEdgeStyle;rounded=0;orthogonalLoop=1;jettySize=auto;html=1;strokeWidth=2;fontSize=17;" parent="1" source="YvQ0jjIPBDzxf4e6Cb04-66" target="YvQ0jjIPBDzxf4e6Cb04-85" edge="1">
          <mxGeometry relative="1" as="geometry">
            <Array as="points">
              <mxPoint x="535" y="1090" />
              <mxPoint x="620" y="1090" />
            </Array>
          </mxGeometry>
        </mxCell>
        <mxCell id="YvQ0jjIPBDzxf4e6Cb04-66" value="进行dealOnlySub处理" style="whiteSpace=wrap;html=1;rounded=0;fontSize=17;" parent="1" vertex="1">
          <mxGeometry x="470" y="990" width="130" height="60" as="geometry" />
        </mxCell>
        <mxCell id="YvQ0jjIPBDzxf4e6Cb04-68" value="是" style="text;html=1;align=center;verticalAlign=middle;resizable=0;points=[];autosize=1;strokeColor=none;fillColor=none;fontSize=17;" parent="1" vertex="1">
          <mxGeometry x="960" y="670" width="40" height="30" as="geometry" />
        </mxCell>
        <mxCell id="YvQ0jjIPBDzxf4e6Cb04-69" value="否" style="text;html=1;align=center;verticalAlign=middle;resizable=0;points=[];autosize=1;strokeColor=none;fillColor=none;fontSize=17;" parent="1" vertex="1">
          <mxGeometry x="880" y="758" width="40" height="30" as="geometry" />
        </mxCell>
        <mxCell id="YvQ0jjIPBDzxf4e6Cb04-74" style="edgeStyle=orthogonalEdgeStyle;rounded=0;orthogonalLoop=1;jettySize=auto;html=1;exitX=0.5;exitY=1;exitDx=0;exitDy=0;entryX=0.5;entryY=0;entryDx=0;entryDy=0;strokeWidth=2;fontSize=17;" parent="1" source="YvQ0jjIPBDzxf4e6Cb04-70" target="YvQ0jjIPBDzxf4e6Cb04-66" edge="1">
          <mxGeometry relative="1" as="geometry" />
        </mxCell>
        <mxCell id="YvQ0jjIPBDzxf4e6Cb04-75" style="edgeStyle=orthogonalEdgeStyle;rounded=0;orthogonalLoop=1;jettySize=auto;html=1;exitX=0.5;exitY=1;exitDx=0;exitDy=0;strokeWidth=2;fontSize=17;" parent="1" source="YvQ0jjIPBDzxf4e6Cb04-70" target="YvQ0jjIPBDzxf4e6Cb04-64" edge="1">
          <mxGeometry relative="1" as="geometry" />
        </mxCell>
        <mxCell id="YvQ0jjIPBDzxf4e6Cb04-76" style="edgeStyle=orthogonalEdgeStyle;rounded=0;orthogonalLoop=1;jettySize=auto;html=1;exitX=0.5;exitY=1;exitDx=0;exitDy=0;entryX=0.5;entryY=0;entryDx=0;entryDy=0;strokeWidth=2;fontSize=17;" parent="1" source="YvQ0jjIPBDzxf4e6Cb04-70" target="YvQ0jjIPBDzxf4e6Cb04-71" edge="1">
          <mxGeometry relative="1" as="geometry" />
        </mxCell>
        <mxCell id="YvQ0jjIPBDzxf4e6Cb04-77" style="edgeStyle=orthogonalEdgeStyle;rounded=0;orthogonalLoop=1;jettySize=auto;html=1;exitX=0.5;exitY=1;exitDx=0;exitDy=0;strokeWidth=2;fontSize=17;" parent="1" source="YvQ0jjIPBDzxf4e6Cb04-70" target="YvQ0jjIPBDzxf4e6Cb04-72" edge="1">
          <mxGeometry relative="1" as="geometry" />
        </mxCell>
        <mxCell id="YvQ0jjIPBDzxf4e6Cb04-84" style="edgeStyle=orthogonalEdgeStyle;rounded=0;orthogonalLoop=1;jettySize=auto;html=1;exitX=0.5;exitY=1;exitDx=0;exitDy=0;entryX=0.5;entryY=0;entryDx=0;entryDy=0;strokeWidth=2;fontSize=17;" parent="1" source="YvQ0jjIPBDzxf4e6Cb04-70" target="YvQ0jjIPBDzxf4e6Cb04-73" edge="1">
          <mxGeometry relative="1" as="geometry" />
        </mxCell>
        <mxCell id="YvQ0jjIPBDzxf4e6Cb04-70" value="根据变电站个数进行筛选" style="rhombus;whiteSpace=wrap;html=1;rounded=0;fontSize=17;" parent="1" vertex="1">
          <mxGeometry x="790" y="800" width="200" height="120" as="geometry" />
        </mxCell>
        <mxCell id="YvQ0jjIPBDzxf4e6Cb04-110" value="" style="edgeStyle=orthogonalEdgeStyle;rounded=0;orthogonalLoop=1;jettySize=auto;html=1;strokeWidth=2;fontSize=17;" parent="1" source="YvQ0jjIPBDzxf4e6Cb04-71" target="YvQ0jjIPBDzxf4e6Cb04-109" edge="1">
          <mxGeometry relative="1" as="geometry" />
        </mxCell>
        <mxCell id="YvQ0jjIPBDzxf4e6Cb04-71" value="进行dealThreeSub处理" style="whiteSpace=wrap;html=1;rounded=0;fontSize=17;" parent="1" vertex="1">
          <mxGeometry x="825" y="990" width="130" height="60" as="geometry" />
        </mxCell>
        <mxCell id="YvQ0jjIPBDzxf4e6Cb04-115" style="edgeStyle=orthogonalEdgeStyle;rounded=0;orthogonalLoop=1;jettySize=auto;html=1;exitX=0.5;exitY=1;exitDx=0;exitDy=0;entryX=1;entryY=0.5;entryDx=0;entryDy=0;strokeWidth=2;fontSize=17;" parent="1" source="YvQ0jjIPBDzxf4e6Cb04-72" target="YvQ0jjIPBDzxf4e6Cb04-109" edge="1">
          <mxGeometry relative="1" as="geometry" />
        </mxCell>
        <mxCell id="YvQ0jjIPBDzxf4e6Cb04-72" value="进行dealFourSub处理" style="whiteSpace=wrap;html=1;rounded=0;fontSize=17;" parent="1" vertex="1">
          <mxGeometry x="1020" y="990" width="130" height="60" as="geometry" />
        </mxCell>
        <mxCell id="YvQ0jjIPBDzxf4e6Cb04-73" value="随机位置交换" style="whiteSpace=wrap;html=1;rounded=0;fontSize=17;" parent="1" vertex="1">
          <mxGeometry x="1200" y="990" width="130" height="60" as="geometry" />
        </mxCell>
        <mxCell id="YvQ0jjIPBDzxf4e6Cb04-79" value="num==1" style="text;html=1;align=center;verticalAlign=middle;resizable=0;points=[];autosize=1;strokeColor=none;fillColor=none;fontSize=17;" parent="1" vertex="1">
          <mxGeometry x="530" y="950" width="90" height="30" as="geometry" />
        </mxCell>
        <mxCell id="YvQ0jjIPBDzxf4e6Cb04-80" value="num==2" style="text;html=1;align=center;verticalAlign=middle;resizable=0;points=[];autosize=1;strokeColor=none;fillColor=none;fontSize=17;" parent="1" vertex="1">
          <mxGeometry x="700" y="950" width="90" height="30" as="geometry" />
        </mxCell>
        <mxCell id="YvQ0jjIPBDzxf4e6Cb04-81" value="num==3" style="text;html=1;align=center;verticalAlign=middle;resizable=0;points=[];autosize=1;strokeColor=none;fillColor=none;fontSize=17;" parent="1" vertex="1">
          <mxGeometry x="890" y="950" width="90" height="30" as="geometry" />
        </mxCell>
        <mxCell id="YvQ0jjIPBDzxf4e6Cb04-82" value="4&amp;lt;=num&amp;lt;=21" style="text;html=1;align=center;verticalAlign=middle;resizable=0;points=[];autosize=1;strokeColor=none;fillColor=none;fontSize=17;" parent="1" vertex="1">
          <mxGeometry x="1080" y="950" width="120" height="30" as="geometry" />
        </mxCell>
        <mxCell id="YvQ0jjIPBDzxf4e6Cb04-83" value="num&amp;gt;=22" style="text;html=1;align=center;verticalAlign=middle;resizable=0;points=[];autosize=1;strokeColor=none;fillColor=none;fontSize=17;" parent="1" vertex="1">
          <mxGeometry x="1260" y="950" width="100" height="30" as="geometry" />
        </mxCell>
        <mxCell id="YvQ0jjIPBDzxf4e6Cb04-97" style="edgeStyle=orthogonalEdgeStyle;rounded=0;orthogonalLoop=1;jettySize=auto;html=1;exitX=0.5;exitY=1;exitDx=0;exitDy=0;strokeWidth=2;fontSize=17;" parent="1" source="YvQ0jjIPBDzxf4e6Cb04-85" target="YvQ0jjIPBDzxf4e6Cb04-95" edge="1">
          <mxGeometry relative="1" as="geometry" />
        </mxCell>
        <mxCell id="YvQ0jjIPBDzxf4e6Cb04-85" value="根据计算得出x、y、offset、width" style="whiteSpace=wrap;html=1;rounded=0;fontSize=17;" parent="1" vertex="1">
          <mxGeometry x="560" y="1120" width="120" height="60" as="geometry" />
        </mxCell>
        <mxCell id="uRffmKBk7FXSzzBP3Kvt-3" style="edgeStyle=orthogonalEdgeStyle;rounded=0;orthogonalLoop=1;jettySize=auto;html=1;exitX=1;exitY=0.5;exitDx=0;exitDy=0;entryX=0;entryY=0.5;entryDx=0;entryDy=0;strokeWidth=2;" edge="1" parent="1" source="YvQ0jjIPBDzxf4e6Cb04-95" target="YvQ0jjIPBDzxf4e6Cb04-102">
          <mxGeometry relative="1" as="geometry" />
        </mxCell>
        <mxCell id="uRffmKBk7FXSzzBP3Kvt-4" style="edgeStyle=orthogonalEdgeStyle;rounded=0;orthogonalLoop=1;jettySize=auto;html=1;exitX=0.5;exitY=1;exitDx=0;exitDy=0;entryX=0.5;entryY=1;entryDx=0;entryDy=0;strokeWidth=2;" edge="1" parent="1" source="YvQ0jjIPBDzxf4e6Cb04-95" target="YvQ0jjIPBDzxf4e6Cb04-98">
          <mxGeometry relative="1" as="geometry" />
        </mxCell>
        <mxCell id="YvQ0jjIPBDzxf4e6Cb04-95" value="遍历计算得到的&lt;br style=&quot;font-size: 17px;&quot;&gt;联络开关是否结束" style="rhombus;whiteSpace=wrap;html=1;rounded=0;fontSize=17;" parent="1" vertex="1">
          <mxGeometry x="380" y="1340" width="190" height="150" as="geometry" />
        </mxCell>
        <mxCell id="YvQ0jjIPBDzxf4e6Cb04-98" value="结束" style="whiteSpace=wrap;html=1;rounded=0;fontSize=17;" parent="1" vertex="1">
          <mxGeometry x="840" y="1340" width="140" height="130" as="geometry" />
        </mxCell>
        <mxCell id="YvQ0jjIPBDzxf4e6Cb04-101" value="是" style="text;html=1;align=center;verticalAlign=middle;resizable=0;points=[];autosize=1;strokeColor=none;fillColor=none;fontSize=17;" parent="1" vertex="1">
          <mxGeometry x="470" y="1480" width="40" height="30" as="geometry" />
        </mxCell>
        <mxCell id="YvQ0jjIPBDzxf4e6Cb04-104" style="edgeStyle=orthogonalEdgeStyle;rounded=0;orthogonalLoop=1;jettySize=auto;html=1;exitX=0.5;exitY=0;exitDx=0;exitDy=0;entryX=0.5;entryY=0;entryDx=0;entryDy=0;strokeWidth=2;fontSize=17;" parent="1" source="YvQ0jjIPBDzxf4e6Cb04-102" target="YvQ0jjIPBDzxf4e6Cb04-95" edge="1">
          <mxGeometry relative="1" as="geometry">
            <Array as="points">
              <mxPoint x="680" y="1280" />
              <mxPoint x="475" y="1280" />
            </Array>
          </mxGeometry>
        </mxCell>
        <mxCell id="YvQ0jjIPBDzxf4e6Cb04-102" value="x进行累加计算，获取新x并给当前联络开关进行赋值，结束后执行addSet()方法" style="rounded=0;whiteSpace=wrap;html=1;fontSize=17;" parent="1" vertex="1">
          <mxGeometry x="600" y="1357.5" width="160" height="115" as="geometry" />
        </mxCell>
        <mxCell id="YvQ0jjIPBDzxf4e6Cb04-105" value="否" style="text;html=1;align=center;verticalAlign=middle;resizable=0;points=[];autosize=1;strokeColor=none;fillColor=none;fontSize=17;" parent="1" vertex="1">
          <mxGeometry x="560" y="1370" width="40" height="30" as="geometry" />
        </mxCell>
        <mxCell id="YvQ0jjIPBDzxf4e6Cb04-114" style="edgeStyle=orthogonalEdgeStyle;rounded=0;orthogonalLoop=1;jettySize=auto;html=1;strokeWidth=2;fontSize=17;" parent="1" source="YvQ0jjIPBDzxf4e6Cb04-109" target="YvQ0jjIPBDzxf4e6Cb04-85" edge="1">
          <mxGeometry relative="1" as="geometry" />
        </mxCell>
        <mxCell id="YvQ0jjIPBDzxf4e6Cb04-109" value="根据联络开关进行&lt;br style=&quot;font-size: 17px;&quot;&gt;排序分组并进行&lt;br style=&quot;font-size: 17px;&quot;&gt;上下两层循环" style="rhombus;whiteSpace=wrap;html=1;rounded=0;fontSize=17;" parent="1" vertex="1">
          <mxGeometry x="780" y="1080" width="220" height="140" as="geometry" />
        </mxCell>
      </root>
    </mxGraphModel>
  </diagram>
</mxfile>
